<?xml version="1.0" encoding="UTF-8"?>
<svg version="1.1" xmlns="http://www.w3.org/2000/svg" width="256" height="256">
<path d="M0 0 C6.37911641 0.53054038 6.37911641 0.53054038 9.4296875 2.734375 C11.16260766 5.15109609 12.23960888 7.49614763 13.375 10.25 C13.95852815 11.59089482 14.54464992 12.93066277 15.1328125 14.26953125 C16.06413523 16.39163043 16.98004615 18.51268482 17.84179688 20.6640625 C19.46985381 24.64719467 20.96255386 27.57966575 24.375 30.25 C25.21933594 30.53617188 26.06367188 30.82234375 26.93359375 31.1171875 C30.46846021 32.75736554 30.98265821 34.81691897 32.4375 38.375 C32.69007568 38.99101074 32.94265137 39.60702148 33.20288086 40.24169922 C35.27673366 45.51062074 36.63970611 50.87994326 37.89770508 56.39111328 C39.36449413 62.66592454 41.67828507 68.41448572 44.375 74.25 C47.75350945 73.66596883 49.37977172 72.56404518 51.8125 70.1875 C54.02051238 68.23842297 55.1130892 67.31859568 58 66.5625 C63.67558497 68.20543249 67.36588373 74.40883502 70.375 79.25 C71.61602364 81.61345116 72.78249933 84.00718999 73.953125 86.40625 C82.88100242 104.26200484 93.97471406 122.13825808 110.453125 133.86328125 C115.10336713 137.21863889 118.33048724 140.20221929 121.375 145.125 C122.014375 146.13304687 122.65375 147.14109375 123.3125 148.1796875 C141.06525726 183.21448497 130.375 212.24904994 130.375 257.25 C45.895 257.25 -38.585 257.25 -125.625 257.25 C-125.625 181.19827586 -125.625 181.19827586 -109.81640625 146.85546875 C-108.68161977 144.37382093 -107.58785845 141.87748807 -106.5 139.375 C-105.47648226 137.05366176 -104.45796418 134.97856679 -103.125 132.8125 C-101.79226342 130.53574168 -100.96296036 128.52515438 -100.0625 126.0625 C-97.11096767 118.4367511 -92.86380722 111.424016 -88.81738281 104.33959961 C-88.0454648 102.98684648 -87.27882772 101.63106047 -86.51855469 100.27172852 C-82.3129518 92.78087068 -78.03428449 86.97140955 -69.625 84.25 C-65.78981746 83.48704347 -61.98283682 82.81912223 -58.11328125 82.25390625 C-52.78946208 80.72174329 -50.57623432 77.89056492 -47.8515625 73.19140625 C-47.32304688 72.07636719 -46.79453125 70.96132812 -46.25 69.8125 C-45.64602438 68.55980371 -45.04185233 67.3072021 -44.4375 66.0546875 C-44.13585937 65.42014648 -43.83421875 64.78560547 -43.5234375 64.13183594 C-39.19530493 55.06628 -34.55739048 46.16371896 -29.82739258 37.3034668 C-27.79177461 33.48378477 -25.82004916 29.648269 -23.9375 25.75 C-21.99210689 21.82612886 -19.80162168 18.19925853 -17.2578125 14.6328125 C-15.53225595 12.2025739 -15.53225595 12.2025739 -13.9921875 9.2421875 C-10.21653847 2.85137032 -7.59852774 0.45397668 0 0 Z " fill="#5E7782" transform="translate(125.625,-1.25)"/>
<path d="M0 0 C2.1875 -0.4375 2.1875 -0.4375 5 0 C8.9680554 3.88707468 10.89210413 8.95937943 13 14 C13.721875 15.0725 14.44375 16.145 15.1875 17.25 C17 20 17 20 17 23 C17.58394531 23.04511719 18.16789063 23.09023437 18.76953125 23.13671875 C22.13821498 24.44053504 22.93222624 26.71041241 24.6875 29.8125 C31.91857911 42.15703396 40.33535476 53.19793815 52.04296875 61.578125 C53.01169922 62.28195313 53.01169922 62.28195313 54 63 C54.82113281 63.59554687 55.64226562 64.19109375 56.48828125 64.8046875 C59.3098114 67.27078384 61.03040774 69.69029638 63 72.875 C63.639375 73.88304687 64.27875 74.89109375 64.9375 75.9296875 C82.69025726 110.96448497 72 139.99904994 72 185 C-12.48 185 -96.96 185 -184 185 C-184 122 -184 122 -183 118 C-182.01 118 -181.02 118 -180 118 C-180.66 120.31 -181.32 122.62 -182 125 C-181.04738281 125.03738281 -180.09476563 125.07476562 -179.11328125 125.11328125 C-177.85902344 125.17902344 -176.60476562 125.24476563 -175.3125 125.3125 C-174.07113281 125.37050781 -172.82976562 125.42851562 -171.55078125 125.48828125 C-164.65983577 126.4813658 -160.00447437 131.29696094 -154.71875 135.55078125 C-152.09974758 137.35433776 -152.09974758 137.35433776 -149.4375 136.24609375 C-148.633125 135.83488281 -147.82875 135.42367187 -147 135 C-142.86201702 134.51818006 -139.14634289 134.4934764 -135.3125 136.1875 C-132.85620452 137.32980546 -132.85620452 137.32980546 -129.875 135.8125 C-127.08610134 134.22803429 -127.08610134 134.22803429 -125.56445312 132.44604492 C-123.70615095 130.7283914 -122.56921478 130.45266153 -120.09375 130.05078125 C-119.34996094 129.92509766 -118.60617188 129.79941406 -117.83984375 129.66992188 C-117.06769531 129.55197266 -116.29554687 129.43402344 -115.5 129.3125 C-114.72785156 129.18294922 -113.95570312 129.05339844 -113.16015625 128.91992188 C-110.07751621 128.41505275 -107.12822266 128 -104 128 C-104 128.66 -104 129.32 -104 130 C-102.88625 129.95875 -101.7725 129.9175 -100.625 129.875 C-97 130 -97 130 -95 132 C-92.42938689 132.64767793 -92.42938689 132.64767793 -90 133 C-89.67 131.68 -89.34 130.36 -89 129 C-81.25 129.75 -81.25 129.75 -79 132 C-74.28769265 132.52358971 -71.88705342 131.59136895 -68 129 C-67.34 129 -66.68 129 -66 129 C-66 128.01 -66 127.02 -66 126 C-59.38273601 121.84414418 -52.9995137 121.70290867 -45.4375 122.0625 C-44.55167236 122.10044678 -43.66584473 122.13839355 -42.75317383 122.17749023 C-36.77878753 122.56373894 -31.57454386 123.83084736 -26 126 C-26 126.99 -26 127.98 -26 129 C-24.6696875 129.3403125 -24.6696875 129.3403125 -23.3125 129.6875 C-19.5358753 131.18389846 -17.61382024 132.92491737 -15 136 C-15 136.66 -15 137.32 -15 138 C-14.34 138 -13.68 138 -13 138 C-12.67 138.66 -12.34 139.32 -12 140 C-3.8878584 140.3676714 -3.8878584 140.3676714 4 139 C5.15020525 136.75256244 5.15020525 136.75256244 6 134 C6.721875 133.175 7.44375 132.35 8.1875 131.5 C15.67884886 122.93526384 19.53520916 113.23939236 19 102 C16.70191849 94.47900596 6.82676243 91.05159866 0.41796875 87.62304688 C-0.36191406 87.19958984 -1.14179688 86.77613281 -1.9453125 86.33984375 C-3.00516357 85.77317993 -3.00516357 85.77317993 -4.08642578 85.19506836 C-6.05976005 83.96267856 -7.51065234 82.78647367 -9 81 C-9.3984375 78.2578125 -9.3984375 78.2578125 -9.375 75.125 C-9.38273438 74.09632813 -9.39046875 73.06765625 -9.3984375 72.0078125 C-8.94915119 68.61614132 -7.93754876 66.78817993 -6 64 C-3.90673098 61.15196521 -3.90673098 61.15196521 -3.0625 58.125 C-2.01469312 55.04321505 -0.73739167 52.73973302 1 50 C3.75388941 45.64310034 5.43224804 42.22331807 6 37 C6.16628906 36.25363281 6.33257812 35.50726563 6.50390625 34.73828125 C8.35835543 24.50230588 7.75606323 13.29901176 1.8125 4.5 C1.214375 3.675 0.61625 2.85 0 2 C0 1.34 0 0.68 0 0 Z " fill="#3E9642" transform="translate(184,71)"/>
<path d="M0 0 C2.1875 -0.4375 2.1875 -0.4375 5 0 C8.9680554 3.88707468 10.89210413 8.95937943 13 14 C13.721875 15.0725 14.44375 16.145 15.1875 17.25 C17 20 17 20 17 23 C17.58394531 23.04511719 18.16789062 23.09023437 18.76953125 23.13671875 C22.13821498 24.44053504 22.93222624 26.71041241 24.6875 29.8125 C31.91857911 42.15703396 40.33535476 53.19793815 52.04296875 61.578125 C52.68878906 62.04734375 53.33460938 62.5165625 54 63 C54.82113281 63.59554687 55.64226562 64.19109375 56.48828125 64.8046875 C64.78519114 72.056419 71.37715398 85.76274828 72.20166016 96.66699219 C72.41164689 102.78453669 72.28439141 108.88689728 72 115 C70.91332031 115.12246094 69.82664062 115.24492187 68.70703125 115.37109375 C64.55656014 116.07523058 62.37525104 117.56667948 59 120 C58.34 120 57.68 120 57 120 C57 120.66 57 121.32 57 122 C56.175 122.61875 55.35 123.2375 54.5 123.875 C48.96406477 128.26146897 44.22415372 135.32753883 42 142 C40.783125 142.0825 39.56625 142.165 38.3125 142.25 C34.14164537 142.74198461 32.21733385 144.30439596 29 147 C26.4375 147.4375 26.4375 147.4375 24 147 C22.64082143 146.03542166 21.30915279 145.03145371 20 144 C15.1793057 142.03413966 10.75361245 141.59757993 5.625 141.375 C4.52091797 141.31699219 4.52091797 141.31699219 3.39453125 141.2578125 C1.59672594 141.16442002 -0.20160108 141.0811629 -2 141 C1 139 1 139 4 139 C4.226875 138.29875 4.45375 137.5975 4.6875 136.875 C6 134 6 134 8.1875 131.5 C15.67884886 122.93526384 19.53520916 113.23939236 19 102 C16.70191849 94.47900596 6.82676243 91.05159866 0.41796875 87.62304688 C-0.36191406 87.19958984 -1.14179688 86.77613281 -1.9453125 86.33984375 C-2.65187988 85.96206787 -3.35844727 85.58429199 -4.08642578 85.19506836 C-6.05976005 83.96267856 -7.51065234 82.78647367 -9 81 C-9.3984375 78.2578125 -9.3984375 78.2578125 -9.375 75.125 C-9.38273438 74.09632813 -9.39046875 73.06765625 -9.3984375 72.0078125 C-8.94915119 68.61614132 -7.93754876 66.78817993 -6 64 C-3.90673098 61.15196521 -3.90673098 61.15196521 -3.0625 58.125 C-2.01469312 55.04321505 -0.73739167 52.73973302 1 50 C3.75388941 45.64310034 5.43224804 42.22331807 6 37 C6.16628906 36.25363281 6.33257812 35.50726563 6.50390625 34.73828125 C8.35835543 24.50230588 7.75606323 13.29901176 1.8125 4.5 C1.214375 3.675 0.61625 2.85 0 2 C0 1.34 0 0.68 0 0 Z " fill="#40545A" transform="translate(184,71)"/>
<path d="M0 0 C0.99 0.33 1.98 0.66 3 1 C4.1875 4.0625 4.1875 4.0625 5 7 C5.66 7 6.32 7 7 7 C7.35191406 7.75925781 7.70382813 8.51851562 8.06640625 9.30078125 C8.56011719 10.29464844 9.05382812 11.28851563 9.5625 12.3125 C10.03816406 13.29863281 10.51382813 14.28476562 11.00390625 15.30078125 C12.86129844 18.29488492 12.86129844 18.29488492 16.515625 19.46875 C20.88031656 21.38686557 21.47305728 22.81843629 23.1875 27.1875 C23.55282837 28.10474854 23.55282837 28.10474854 23.92553711 29.04052734 C25.93292092 34.29224154 27.2671799 39.67318553 28.52758789 45.14355469 C29.98758762 51.35483023 31.99823694 57.35382662 35 63 C35.99 63.495 35.99 63.495 37 64 C35.70091319 71.3073633 31.39889316 76.18747388 27 82 C23.44148216 87.0121299 20.24334059 92.23200881 17.06640625 97.49047852 C12.3566119 105.28190152 7.51048723 112.74553439 2 120 C1.44441406 120.78246094 0.88882813 121.56492187 0.31640625 122.37109375 C-0.20050781 123.09425781 -0.71742188 123.81742187 -1.25 124.5625 C-1.90742188 125.49255859 -1.90742188 125.49255859 -2.578125 126.44140625 C-4.21639424 128.23720138 -5.81922047 128.97006363 -8 130 C-7.93143799 129.34443115 -7.86287598 128.6888623 -7.79223633 128.01342773 C-5.47720032 105.0239182 -5.47720032 105.0239182 -11 83 C-17.97868873 60.42188941 -20.28949372 37.65136088 -10.5 15.625 C-9 13 -9 13 -6.9375 9.9375 C-5.20930324 7.31733072 -4.03974037 4.94593105 -3 2 C-2.01 2 -1.02 2 0 2 C0 1.34 0 0.68 0 0 Z " fill="#546D77" transform="translate(135,10)"/>
<path d="M0 0 C0.99 0.33 1.98 0.66 3 1 C2.07449304 6.34956151 1.07240311 11.67799949 0 17 C-0.17015625 17.88429688 -0.3403125 18.76859375 -0.515625 19.6796875 C-2.13020617 25.97655406 -6.28084782 29.99945307 -10.72265625 34.51953125 C-12.73296323 36.7091452 -13.75766826 38.36625672 -15 41 C-15.46664062 41.44601563 -15.93328125 41.89203125 -16.4140625 42.3515625 C-19.48584803 45.54440362 -21.10881533 49.84627702 -23.0859375 53.7734375 C-25.05897237 57.09941057 -27.08798343 59.46739927 -30 62 C-30.66 62 -31.32 62 -32 62 C-32 62.66 -32 63.32 -32 64 C-34.475 64.99 -34.475 64.99 -37 66 C-36.3485119 61.2224206 -35.79466516 57.67089515 -32.1875 54.3125 C-29.53653929 51.51005582 -27.94541976 48.5147577 -26.1484375 45.12109375 C-25 43 -25 43 -23 40 C-22.71640625 39.06542969 -22.4328125 38.13085938 -22.140625 37.16796875 C-20.8496499 33.58241805 -19.12949475 31.27877491 -16.75 28.3125 C-12.49163933 22.79366457 -9.17917713 17.18319298 -6 11 C-4.87987432 8.93484874 -3.75497948 6.87227611 -2.625 4.8125 C-2.12226562 3.89082031 -1.61953125 2.96914062 -1.1015625 2.01953125 C-0.73804688 1.35308594 -0.37453125 0.68664062 0 0 Z " fill="#748E9A" transform="translate(67,105)"/>
<path d="M0 0 C0.99 0 1.98 0 3 0 C2.34 2.31 1.68 4.62 1 7 C1.95261719 7.03738281 2.90523438 7.07476562 3.88671875 7.11328125 C5.14097656 7.17902344 6.39523438 7.24476563 7.6875 7.3125 C8.92886719 7.37050781 10.17023437 7.42851562 11.44921875 7.48828125 C18.34016423 8.4813658 22.99552563 13.29696094 28.28125 17.55078125 C30.90025242 19.35433776 30.90025242 19.35433776 33.5625 18.24609375 C34.366875 17.83488281 35.17125 17.42367187 36 17 C40.13798298 16.51818006 43.85365711 16.4934764 47.6875 18.1875 C50.14379548 19.32980546 50.14379548 19.32980546 53.125 17.8125 C55.91389866 16.22803429 55.91389866 16.22803429 57.43554688 14.44604492 C59.29384905 12.7283914 60.43078522 12.45266153 62.90625 12.05078125 C63.65003906 11.92509766 64.39382812 11.79941406 65.16015625 11.66992188 C65.93230469 11.55197266 66.70445313 11.43402344 67.5 11.3125 C68.27214844 11.18294922 69.04429688 11.05339844 69.83984375 10.91992188 C72.92248379 10.41505275 75.87177734 10 79 10 C79 10.66 79 11.32 79 12 C80.11375 11.95875 81.2275 11.9175 82.375 11.875 C86 12 86 12 88 14 C90.57061311 14.64767793 90.57061311 14.64767793 93 15 C93.33 13.68 93.66 12.36 94 11 C95.27875 11.103125 96.5575 11.20625 97.875 11.3125 C98.95394531 11.39951172 98.95394531 11.39951172 100.0546875 11.48828125 C102 12 102 12 104 15 C97.30884417 16.96120085 91.84655637 16.93622242 84.9296875 16.29296875 C77.96121027 15.77345007 70.9834625 15.923909 64 16 C63.34 17.32 62.68 18.64 62 20 C61.34 19.67 60.68 19.34 60 19 C56.57772411 20.25483449 54.45919511 22.3651481 52 25 C51.40832031 24.68804687 50.81664062 24.37609375 50.20703125 24.0546875 C45.3178217 21.47238532 45.3178217 21.47238532 40 21.6875 C38.08486596 22.84739522 38.08486596 22.84739522 37 24 C32.77967261 24.46892527 30.3897789 23.51812147 27 21 C27 20.34 27 19.68 27 19 C26.4225 18.896875 25.845 18.79375 25.25 18.6875 C23 18 23 18 21.125 16.5625 C16.55764277 13.2041491 11.12829283 12.60185 5.625 11.875 C4.37976563 11.70742187 3.13453125 11.53984375 1.8515625 11.3671875 C0.91054688 11.24601563 -0.03046875 11.12484375 -1 11 C-1.07142857 3.34821429 -1.07142857 3.34821429 0 0 Z " fill="#498653" transform="translate(1,189)"/>
<path d="M0 0 C1.60926473 4.85607416 -0.27008609 7.82834191 -2.375 12.25 C-2.73352051 13.00982178 -3.09204102 13.76964355 -3.46142578 14.55249023 C-6.49019547 20.62896758 -10.11367156 25.3973716 -16 29 C-16.66 29 -17.32 29 -18 29 C-18.33 29.99 -18.66 30.98 -19 32 C-20.6396721 33.36639342 -22.31110128 34.6949419 -24 36 C-26.68933694 38.49724144 -28.79660544 40.66100906 -30.6875 43.8125 C-31.120625 44.534375 -31.55375 45.25625 -32 46 C-32.66 46 -33.32 46 -34 46 C-34 46.66 -34 47.32 -34 48 C-35.26691507 48.67408308 -36.53870749 49.33900497 -37.8125 50 C-38.52019531 50.37125 -39.22789063 50.7425 -39.95703125 51.125 C-42 52 -42 52 -45 52 C-43.96303454 49.36045156 -43.08363473 48.06451822 -40.8125 46.3125 C-37.55648913 43.6353355 -35.35236121 40.65362543 -32.828125 37.30078125 C-30.6282174 34.53209412 -28.18384572 32.15112837 -25.63671875 29.70703125 C-23.93411334 27.93128288 -22.57423505 26.09176918 -21.1875 24.0625 C-20.465625 23.051875 -19.74375 22.04125 -19 21 C-18.34 21 -17.68 21 -17 21 C-16.73123047 20.41428223 -16.46246094 19.82856445 -16.18554688 19.22509766 C-14.99300873 16.98687841 -13.69964608 15.30141956 -12.03125 13.3984375 C-11.46019531 12.74359375 -10.88914063 12.08875 -10.30078125 11.4140625 C-9.70652344 10.74117187 -9.11226562 10.06828125 -8.5 9.375 C-7.90574219 8.694375 -7.31148437 8.01375 -6.69921875 7.3125 C-4.51399243 4.81650786 -2.34632463 2.34632463 0 0 Z " fill="#6C8690" transform="translate(121,146)"/>
<path d="M0 0 C0.88582764 0.03794678 1.77165527 0.07589355 2.68432617 0.11499023 C8.65871247 0.50123894 13.86295614 1.76834736 19.4375 3.9375 C19.4375 4.9275 19.4375 5.9175 19.4375 6.9375 C20.324375 7.164375 21.21125 7.39125 22.125 7.625 C25.9016247 9.12139846 27.82367976 10.86241737 30.4375 13.9375 C30.4375 14.5975 30.4375 15.2575 30.4375 15.9375 C31.0975 15.9375 31.7575 15.9375 32.4375 15.9375 C32.9325 16.9275 32.9325 16.9275 33.4375 17.9375 C35.355625 17.875625 35.355625 17.875625 37.3125 17.8125 C39.4921875 17.7421875 39.4921875 17.7421875 41.4375 17.9375 C42.4275 18.9275 42.4275 18.9275 43.4375 19.9375 C41.4375 21.9375 41.4375 21.9375 38.625 22.25 C35.08803308 21.90323854 33.24359399 21.08333658 30.4375 18.9375 C30.4375 18.2775 30.4375 17.6175 30.4375 16.9375 C29.7775 16.9375 29.1175 16.9375 28.4375 16.9375 C28.4375 16.2775 28.4375 15.6175 28.4375 14.9375 C27.7775 14.9375 27.1175 14.9375 26.4375 14.9375 C25.55771484 13.80248047 25.55771484 13.80248047 24.66015625 12.64453125 C20.30971583 7.34601594 13.88197636 4.60876127 7.16796875 3.59472656 C-3.78564814 2.62216729 -14.47442581 3.4662574 -23.48046875 10.41796875 C-24.26357422 11.10826172 -24.26357422 11.10826172 -25.0625 11.8125 C-27.5625 13.9375 -27.5625 13.9375 -29.8125 13.875 C-31.5625 12.9375 -31.5625 12.9375 -33.5625 10.9375 C-32.53125 10.64875 -31.5 10.36 -30.4375 10.0625 C-27.11242003 9.11441202 -23.83498547 8.05493406 -20.5625 6.9375 C-20.5625 5.9475 -20.5625 4.9575 -20.5625 3.9375 C-13.94523601 -0.21835582 -7.5620137 -0.35959133 0 0 Z " fill="#3F6A58" transform="translate(138.5625,193.0625)"/>
<path d="M0 0 C-3.75 2 -3.75 2 -6 2 C-6.433125 2.928125 -6.433125 2.928125 -6.875 3.875 C-8.37674486 6.71162918 -9.45243105 7.80835087 -12.5 8.875 C-15.50977042 10.22939669 -15.70755672 11.0704619 -17 14 C-18.29470975 15.37086915 -19.62150897 16.71340837 -21 18 C-20.505 18.99 -20.505 18.99 -20 20 C-21 21 -22 22 -23 23 C-23.763125 23.845625 -24.52625 24.69125 -25.3125 25.5625 C-28.6492836 28.58888512 -31.62924674 29.55548376 -36 30.375 C-38.29136487 30.98313387 -38.29136487 30.98313387 -41 33.0625 C-44 35 -44 35 -48 35 C-50.44560428 33.04351658 -52.16992525 30.52724608 -54 28 C-49.125 29.875 -49.125 29.875 -48 31 C-45.66928121 31.41870553 -45.66928121 31.41870553 -43 31 C-42.236875 30.34 -41.47375 29.68 -40.6875 29 C-36.92574728 26.20055612 -34.60420492 26.68785051 -30 27 C-29.90203125 26.45214844 -29.8040625 25.90429688 -29.703125 25.33984375 C-27.64424746 18.48835683 -22.49436551 11.55247428 -17 7 C-16.34 7 -15.68 7 -15 7 C-15 6.34 -15 5.68 -15 5 C-12.98828125 3.45703125 -12.98828125 3.45703125 -10.3125 1.8125 C-9.00732422 0.98685547 -9.00732422 0.98685547 -7.67578125 0.14453125 C-4.58456202 -1.17769829 -3.15862109 -0.98457919 0 0 Z " fill="#4D8B54" transform="translate(256,186)"/>
<path d="M0 0 C-0.26160865 6.00391853 -0.81892239 9.42694636 -5 14 C-5.3721042 15.32303717 -5.70630173 16.65737935 -6 18 C-6.433125 18.70125 -6.86625 19.4025 -7.3125 20.125 C-9.33698487 23.57412236 -10.60202049 27.12902437 -11.9375 30.890625 C-13 33 -13 33 -16 34 C-15.65528455 28.19927101 -14.94732807 23.22846863 -12.67578125 17.8671875 C-11.82607829 15.76923423 -11.82607829 15.76923423 -11.6875 12.4375 C-10.75819867 7.79099335 -8.39636883 5.20204922 -5 2 C-2 0 -2 0 0 0 Z " fill="#809BA5" transform="translate(95,80)"/>
<path d="M0 0 C2.58984375 1.7265625 2.58984375 1.7265625 4.58984375 3.7265625 C4.58984375 4.7165625 4.58984375 5.7065625 4.58984375 6.7265625 C3.92984375 6.7265625 3.26984375 6.7265625 2.58984375 6.7265625 C2.09484375 5.7365625 2.09484375 5.7365625 1.58984375 4.7265625 C-0.42685452 3.59305716 -0.42685452 3.59305716 -2.41015625 2.7265625 C-2.41015625 2.0665625 -2.41015625 1.4065625 -2.41015625 0.7265625 C-13.67255027 -4.01549814 -26.0151599 -3.53241917 -37.359375 0.76171875 C-39.50796286 1.77257818 -41.21838083 2.96878097 -43.09765625 4.4140625 C-45.49476868 6.25038257 -46.22834464 6.70722084 -49.34765625 7.0390625 C-50.36859375 6.884375 -50.36859375 6.884375 -51.41015625 6.7265625 C-35.70256215 -6.20910323 -18.25849508 -10.35429242 0 0 Z " fill="#4F8F56" transform="translate(159.41015625,201.2734375)"/>
<path d="M0 0 C0 0.66 0 1.32 0 2 C1.11375 1.95875 2.2275 1.9175 3.375 1.875 C7 2 7 2 9 4 C11.57061311 4.64767793 11.57061311 4.64767793 14 5 C14.33 3.68 14.66 2.36 15 1 C16.27875 1.103125 17.5575 1.20625 18.875 1.3125 C19.59429687 1.37050781 20.31359375 1.42851562 21.0546875 1.48828125 C23 2 23 2 25 5 C18.92534396 6.70146616 14.21149898 7.26335572 8 6 C7.4328125 5.66097656 6.865625 5.32195312 6.28125 4.97265625 C2.86746867 3.51712277 -0.53771213 3.66210741 -4.1875 3.6875 C-4.94474365 3.68878906 -5.7019873 3.69007813 -6.48217773 3.69140625 C-12.17082348 3.78905493 -16.74831132 4.70835403 -22 7 C-22 7.66 -22 8.32 -22 9 C-23.6875 10.6875 -23.6875 10.6875 -26 12 C-28.75 11.6875 -28.75 11.6875 -31 11 C-29 9 -29 9 -26.0625 7.5625 C-23.07907359 6.25736223 -23.07907359 6.25736223 -21.55273438 4.46166992 C-19.70247884 2.7199278 -18.57844034 2.45415926 -16.09375 2.05078125 C-15.34996094 1.92509766 -14.60617188 1.79941406 -13.83984375 1.66992188 C-12.68162109 1.49299805 -12.68162109 1.49299805 -11.5 1.3125 C-10.72785156 1.18294922 -9.95570312 1.05339844 -9.16015625 0.91992188 C-6.07751621 0.41505275 -3.12822266 0 0 0 Z " fill="#3E6756" transform="translate(80,199)"/>
<path d="M0 0 C1.10348268 3.31044803 0.99444068 5.65506316 0 9 C-0.99 9.495 -0.99 9.495 -2 10 C-2.309375 10.825 -2.61875 11.65 -2.9375 12.5 C-3.4634375 13.7375 -3.4634375 13.7375 -4 15 C-4.99 15.33 -5.98 15.66 -7 16 C-6.896875 17.216875 -6.79375 18.43375 -6.6875 19.6875 C-6.66831217 23.32039579 -6.81536439 23.79107023 -9.375 26.6875 C-10.24125 27.450625 -11.1075 28.21375 -12 29 C-13.49475812 31.98951623 -14 33.6469189 -14 37 C-15.485 37.495 -15.485 37.495 -17 38 C-18.70855022 41.00007271 -18.70855022 41.00007271 -20 44 C-20.66 44 -21.32 44 -22 44 C-19.25914586 34.53159479 -13.92606135 25.9359647 -9.31616211 17.27612305 C-6.75252653 12.4526462 -4.26485575 7.59998126 -1.875 2.6875 C-1 1 -1 1 0 0 Z " fill="#9EA9AC" transform="translate(105,19)"/>
<path d="M0 0 C0 0.66 0 1.32 0 2 C-1.2065625 2.4021875 -1.2065625 2.4021875 -2.4375 2.8125 C-3.283125 3.204375 -4.12875 3.59625 -5 4 C-5.33 4.99 -5.66 5.98 -6 7 C-7.78515625 8.39453125 -7.78515625 8.39453125 -10.0625 9.8125 C-14.54164113 12.6765662 -18.78580332 15.76184343 -23 19 C-23 18.01 -23 17.02 -23 16 C-22.38125 15.7525 -21.7625 15.505 -21.125 15.25 C-18.55087761 13.73581036 -18.27785044 12.65399708 -17 10 C-11.54629661 1.43811737 -11.54629661 1.43811737 -6.25 -0.0625 C-4.16694765 -0.0224413 -2.0834375 0 0 0 Z " fill="#6D8691" transform="translate(86,167)"/>
<path d="M0 0 C1.32 0 2.64 0 4 0 C7 3.21428571 7 3.21428571 7 6 C7.66 6 8.32 6 9 6 C9.33 6.66 9.66 7.32 10 8 C11.918125 7.938125 11.918125 7.938125 13.875 7.875 C16.0546875 7.8046875 16.0546875 7.8046875 18 8 C18.66 8.66 19.32 9.32 20 10 C18 12 18 12 15.1875 12.3125 C11.65053308 11.96573854 9.80609399 11.14583658 7 9 C7 8.34 7 7.68 7 7 C6.34 7 5.68 7 5 7 C5 6.34 5 5.68 5 5 C4.34 5 3.68 5 3 5 C1.375 2.5 1.375 2.5 0 0 Z " fill="#3C6A4D" transform="translate(162,203)"/>
<path d="M0 0 C1.3921875 1.2065625 1.3921875 1.2065625 2.8125 2.4375 C8.69581246 7.48205101 14.65810849 12.46826401 20.8359375 17.1484375 C21.55007812 17.75945312 22.26421875 18.37046875 23 19 C23 19.66 23 20.32 23 21 C19.53330868 19.4592483 16.92519389 17.40515942 14 15 C12.5008237 13.85308917 11.00075005 12.70735078 9.5 11.5625 C6.06831203 8.88704377 2.8428709 6.30139846 0 3 C0 2.01 0 1.02 0 0 Z " fill="#93A0A0" transform="translate(220,119)"/>
<path d="M0 0 C0.99 0 1.98 0 3 0 C2.34 2.31 1.68 4.62 1 7 C1.95261719 7.03738281 2.90523438 7.07476562 3.88671875 7.11328125 C5.14097656 7.17902344 6.39523438 7.24476563 7.6875 7.3125 C8.92886719 7.37050781 10.17023437 7.42851562 11.44921875 7.48828125 C15.07002103 8.01009104 17.08787355 8.83400155 20 11 C20 11.33 20 11.66 20 12 C17.66666667 11.66666667 15.33333333 11.33333333 13 11 C11.76378906 10.82339844 10.52757812 10.64679688 9.25390625 10.46484375 C5.8359375 9.9765625 2.41796875 9.48828125 -1 9 C-0.67 6.03 -0.34 3.06 0 0 Z " fill="#406A64" transform="translate(1,189)"/>
<path d="M0 0 C-0.33 0.99 -0.66 1.98 -1 3 C-1.66 3 -2.32 3 -3 3 C-3 3.66 -3 4.32 -3 5 C-4.43849663 6.17086935 -5.87898954 7.33941807 -7.33203125 8.4921875 C-10.08340942 10.97938181 -11.94838791 13.92258186 -14 17 C-14.6875 15.3125 -14.6875 15.3125 -15 13 C-13.12859621 8.85943761 -10.47920698 6.45722961 -6.9375 3.6875 C-6.05964844 2.99011719 -5.18179688 2.29273438 -4.27734375 1.57421875 C-2 0 -2 0 0 0 Z " fill="#2D513F" transform="translate(244,188)"/>
<path d="M0 0 C2.60423592 -0.02697137 5.20819244 -0.04682489 7.8125 -0.0625 C8.55048828 -0.07087891 9.28847656 -0.07925781 10.04882812 -0.08789062 C13.29922068 -0.10259828 15.89404895 -0.03531702 19 1 C18.67 1.66 18.34 2.32 18 3 C12.06 3 6.12 3 0 3 C0 2.01 0 1.02 0 0 Z " fill="#4D8C59" transform="translate(182,212)"/>
<path d="M0 0 C0.78503906 -0.01224609 1.57007812 -0.02449219 2.37890625 -0.03710938 C4.42063726 -0.04236254 6.46192251 0.0652982 8.5 0.1875 C9.16 0.8475 9.82 1.5075 10.5 2.1875 C7.72276075 2.97438445 5.27389923 3.30699924 2.390625 3.28515625 C1.63652344 3.28193359 0.88242188 3.27871094 0.10546875 3.27539062 C-0.67183594 3.26701172 -1.44914062 3.25863281 -2.25 3.25 C-3.04277344 3.24548828 -3.83554688 3.24097656 -4.65234375 3.23632812 C-6.60159508 3.22458565 -8.55080738 3.20665146 -10.5 3.1875 C-10.5 2.5275 -10.5 1.8675 -10.5 1.1875 C-7.21646451 -0.45426774 -3.60480362 0.00295961 0 0 Z " fill="#51974D" transform="translate(75.5,201.8125)"/>
<path d="M0 0 C6.98850552 5.75523984 10.34073597 14.54328832 13 23 C12.34 23 11.68 23 11 23 C8.15969912 17.97127057 5.40908869 12.92688129 2.89453125 7.7265625 C1.90333204 5.73609265 1.90333204 5.73609265 0 3 C0 2.01 0 1.02 0 0 Z " fill="#859093" transform="translate(190,71)"/>
<path d="M0 0 C0.66 0.33 1.32 0.66 2 1 C1.40606618 2.29640378 0.79942011 3.58698839 0.1875 4.875 C-0.14894531 5.59429688 -0.48539063 6.31359375 -0.83203125 7.0546875 C-2 9 -2 9 -5 11 C-6.19232613 13.05003955 -6.19232613 13.05003955 -7 15 C-7.66 15 -8.32 15 -9 15 C-9.33 16.32 -9.66 17.64 -10 19 C-10.66 18.67 -11.32 18.34 -12 18 C-8.35459694 11.69164293 -4.51018641 5.72569764 0 0 Z " fill="#ADB6BA" transform="translate(118,0)"/>
<path d="M0 0 C1 3 1 3 0.5625 5.125 C-1 7 -1 7 -4.8125 7.5 C-5.52664062 7.55027344 -6.24078125 7.60054687 -6.9765625 7.65234375 C-9.98903495 8.16993072 -11.70006316 10.07302589 -14 12 C-16.8125 12.25 -16.8125 12.25 -19 12 C-19 11.34 -19 10.68 -19 10 C-17.9275 9.54625 -16.855 9.0925 -15.75 8.625 C-13.7394019 7.76908273 -11.80761924 6.89815136 -9.875 5.875 C-8 5 -8 5 -5.4375 4.625 C-2.37531929 3.83982546 -1.61716363 2.63853013 0 0 Z " fill="#2E5641" transform="translate(227,206)"/>
<path d="M0 0 C0.33 0.66 0.66 1.32 1 2 C0.0625 4.125 0.0625 4.125 -1 6 C-1.66 6 -2.32 6 -3 6 C-3.2475 6.598125 -3.495 7.19625 -3.75 7.8125 C-5.16370012 10.28647521 -6.65055383 11.43370255 -9 13 C-9.33 12.01 -9.66 11.02 -10 10 C-8.671875 8.02734375 -8.671875 8.02734375 -6.75 5.9375 C-6.12609375 5.24527344 -5.5021875 4.55304688 -4.859375 3.83984375 C-3 2 -3 2 0 0 Z " fill="#839497" transform="translate(181,66)"/>
<path d="M0 0 C6.57070734 -0.31289083 11.9703752 0.22101859 18 3 C18.66 3.66 19.32 4.32 20 5 C18.33388095 5.042721 16.66617115 5.04063832 15 5 C14.67 4.67 14.34 4.34 14 4 C11.65276034 3.602507 9.29671452 3.25631277 6.9375 2.9375 C5.00197266 2.67259766 5.00197266 2.67259766 3.02734375 2.40234375 C1.52880859 2.20318359 1.52880859 2.20318359 0 2 C0 1.34 0 0.68 0 0 Z " fill="#568B64" transform="translate(0,198)"/>
<path d="M0 0 C2.96308981 2.77068138 5.08584662 5.49820781 7.125 9 C7.62257812 9.845625 8.12015625 10.69125 8.6328125 11.5625 C9.8217357 13.68218022 10.93771186 15.81472153 12 18 C10.02 17.34 8.04 16.68 6 16 C6 14.02 6 12.04 6 10 C5.34 10 4.68 10 4 10 C1.1605948 6.32547562 0 4.73113419 0 0 Z " fill="#9DA3A8" transform="translate(203,94)"/>
<path d="M0 0 C1.23556641 0.01740234 1.23556641 0.01740234 2.49609375 0.03515625 C3.32238281 0.04417969 4.14867187 0.05320313 5 0.0625 C5.63808594 0.07410156 6.27617188 0.08570313 6.93359375 0.09765625 C7.26359375 0.75765625 7.59359375 1.41765625 7.93359375 2.09765625 C6.65162109 2.27941406 6.65162109 2.27941406 5.34375 2.46484375 C4.23902344 2.63242188 3.13429688 2.8 1.99609375 2.97265625 C0.89394531 3.13507813 -0.20820312 3.2975 -1.34375 3.46484375 C-2.24222656 3.67367187 -3.14070313 3.8825 -4.06640625 4.09765625 C-4.39640625 4.75765625 -4.72640625 5.41765625 -5.06640625 6.09765625 C-6.05640625 5.76765625 -7.04640625 5.43765625 -8.06640625 5.09765625 C-8.39640625 4.10765625 -8.72640625 3.11765625 -9.06640625 2.09765625 C-8.09703125 1.95328125 -7.12765625 1.80890625 -6.12890625 1.66015625 C-3.3538604 1.15045395 -2.5811312 0.12198163 0 0 Z " fill="#396652" transform="translate(39.06640625,205.90234375)"/>
<path d="M0 0 C-0.66 1.32 -1.32 2.64 -2 4 C-3.19625 3.979375 -4.3925 3.95875 -5.625 3.9375 C-9.18004869 3.93117429 -12.50555624 4.30111125 -16 5 C-15 3 -15 3 -12.875 1.9375 C-8.62284677 0.5509283 -4.46555473 0 0 0 Z " fill="#9DA6AB" transform="translate(66,82)"/>
<path d="M0 0 C0.680625 0.28875 1.36125 0.5775 2.0625 0.875 C-1.6875 2.875 -1.6875 2.875 -3.9375 2.875 C-4.185 3.49375 -4.4325 4.1125 -4.6875 4.75 C-6.14378639 7.22568687 -7.31562506 7.82625002 -9.9375 8.875 C-9.9375 5.875 -9.9375 5.875 -8.58203125 4.234375 C-3.58802704 -0.152682 -3.58802704 -0.152682 0 0 Z " fill="#499151" transform="translate(253.9375,185.125)"/>
<path d="M0 0 C1.32 0 2.64 0 4 0 C7 3.21428571 7 3.21428571 7 6 C7.66 6 8.32 6 9 6 C8.67 7.32 8.34 8.64 8 10 C7.67 9.01 7.34 8.02 7 7 C6.34 7 5.68 7 5 7 C5 6.34 5 5.68 5 5 C4.34 5 3.68 5 3 5 C1.375 2.5 1.375 2.5 0 0 Z " fill="#44754F" transform="translate(162,203)"/>
<path d="M0 0 C0 3.74194053 -1.01641341 4.6769419 -3.3125 7.5625 C-3.92738281 8.34753906 -4.54226562 9.13257813 -5.17578125 9.94140625 C-7 12 -7 12 -10 14 C-9.34 12.35 -8.68 10.7 -8 9 C-7.34 9 -6.68 9 -6 9 C-5.7525 8.2575 -5.505 7.515 -5.25 6.75 C-3.90852699 3.79875938 -2.39094474 2.15185026 0 0 Z " fill="#66808C" transform="translate(58,137)"/>
<path d="M0 0 C4.2707172 2.74546106 8.23029015 5.58931014 12 9 C12 9.66 12 10.32 12 11 C8.55570748 9.46920333 5.90483327 7.38345294 3 5 C2.01 4.34 1.02 3.68 0 3 C0 2.01 0 1.02 0 0 Z " fill="#A2ADAB" transform="translate(231,129)"/>
<path d="M0 0 C6.52307692 -0.36923077 6.52307692 -0.36923077 8.9375 1.5 C9.288125 1.995 9.63875 2.49 10 3 C9.01 3.495 9.01 3.495 8 4 C5.375 3.0625 5.375 3.0625 3 2 C3 2.66 3 3.32 3 4 C2.01 3.67 1.02 3.34 0 3 C0 2.01 0 1.02 0 0 Z " fill="#528C56" transform="translate(98,204)"/>
<path d="M0 0 C0.80179688 0.00451172 1.60359375 0.00902344 2.4296875 0.01367188 C4.41149006 0.02546832 6.39325433 0.04340395 8.375 0.0625 C8.375 0.3925 8.375 0.7225 8.375 1.0625 C7.42238281 1.12308594 6.46976563 1.18367187 5.48828125 1.24609375 C4.23402344 1.32988281 2.97976562 1.41367188 1.6875 1.5 C0.44613281 1.58121094 -0.79523438 1.66242188 -2.07421875 1.74609375 C-5.00680337 2.00741317 -7.75941617 2.41048379 -10.625 3.0625 C-10.625 2.4025 -10.625 1.7425 -10.625 1.0625 C-7.31505287 -0.59247356 -3.63377 -0.03834335 0 0 Z " fill="#518E5A" transform="translate(75.625,201.9375)"/>
<path d="M0 0 C0.99 0.33 1.98 0.66 3 1 C2.01 1.99 1.02 2.98 0 4 C-0.66 3.67 -1.32 3.34 -2 3 C-1.34 2.01 -0.68 1.02 0 0 Z M-6 7 C-6 7.99 -6 8.98 -6 10 C-7.32 10 -8.64 10 -10 10 C-10 9.34 -10 8.68 -10 8 C-8.68 7.67 -7.36 7.34 -6 7 Z " fill="#4A944D" transform="translate(233,205)"/>
<path d="M0 0 C1.68854343 2.17098441 3.17773907 4.3057112 4.5625 6.6875 C5.7908468 9.11355864 5.7908468 9.11355864 8 10 C8 10.66 8 11.32 8 12 C4.03003043 10.67667681 2.23963605 7.9910601 -0.14453125 4.75390625 C-1 3 -1 3 0 0 Z " fill="#99A8AA" transform="translate(142,19)"/>
<path d="M0 0 C0.33 0.99 0.66 1.98 1 3 C1.226875 3.639375 1.45375 4.27875 1.6875 4.9375 C2.08580007 7.56628048 1.3546267 8.76885014 0 11 C-0.66 11 -1.32 11 -2 11 C-1.85957123 9.35369672 -1.71250671 7.70795821 -1.5625 6.0625 C-1.48128906 5.14597656 -1.40007812 4.22945313 -1.31640625 3.28515625 C-1 1 -1 1 0 0 Z " fill="#76929E" transform="translate(81,103)"/>
<path d="M0 0 C1.9375 0.6875 1.9375 0.6875 4 2 C4.75 4.625 4.75 4.625 5 7 C4.67 6.34 4.34 5.68 4 5 C2.02 5.33 0.04 5.66 -2 6 C-2 5.01 -2 4.02 -2 3 C-1.34 3 -0.68 3 0 3 C0 2.01 0 1.02 0 0 Z " fill="#6E7B7B" transform="translate(185,66)"/>
<path d="M0 0 C1.10844919 3.32534757 0.84454356 5.62182575 0 9 C-1.32 8.67 -2.64 8.34 -4 8 C-2.87548273 5.0280615 -1.77706209 2.66559313 0 0 Z " fill="#A7B8B8" transform="translate(105,19)"/>
<path d="M0 0 C1.32940404 3.98821211 0.43803613 6.11730245 -1 10 C-1.99 10.33 -2.98 10.66 -4 11 C-3.39301257 6.87248551 -1.96189209 3.6678852 0 0 Z " fill="#93A1AE" transform="translate(15,148)"/>
<path d="M0 0 C0.99 0.33 1.98 0.66 3 1 C1.375 7.75 1.375 7.75 -2 10 C-1.34 6.7 -0.68 3.4 0 0 Z " fill="#768C94" transform="translate(130,9)"/>
<path d="M0 0 C2.02045442 0.60183749 4.02111039 1.27306096 6 2 C6.33 2.66 6.66 3.32 7 4 C4.69 4 2.38 4 0 4 C0 2.68 0 1.36 0 0 Z " fill="#538E59" transform="translate(86,204)"/>
<path d="M0 0 C1.7492214 -0.08142927 3.49954542 -0.13938541 5.25 -0.1875 C6.22453125 -0.22230469 7.1990625 -0.25710937 8.203125 -0.29296875 C11.37468742 0.03924798 12.67040307 0.88672279 15 3 C13.33388095 3.042721 11.66617115 3.04063832 10 3 C9.67 2.67 9.34 2.34 9 2 C7.48530552 1.76807135 5.96245438 1.58784762 4.4375 1.4375 C3.61121094 1.35371094 2.78492188 1.26992187 1.93359375 1.18359375 C1.29550781 1.12300781 0.65742187 1.06242188 0 1 C0 0.67 0 0.34 0 0 Z " fill="#4D9259" transform="translate(5,200)"/>
<path d="M0 0 C0.33 0 0.66 0 1 0 C1.25 2.8125 1.25 2.8125 1 6 C-1 7.875 -1 7.875 -3 9 C-3.66 8.67 -4.32 8.34 -5 8 C-4.19185349 6.66402348 -3.37836819 5.331275 -2.5625 4 C-2.11003906 3.2575 -1.65757813 2.515 -1.19140625 1.75 C-0.79824219 1.1725 -0.40507813 0.595 0 0 Z " fill="#99A1A6" transform="translate(78,71)"/>
<path d="M0 0 C3.53586014 3.17320782 5.58578031 5.16743695 6 10 C2.46413986 6.82679218 0.41421969 4.83256305 0 0 Z " fill="#A2A9AB" transform="translate(190,71)"/>
<path d="M0 0 C0.66 0.33 1.32 0.66 2 1 C0.68 3.64 -0.64 6.28 -2 9 C-2.33 9 -2.66 9 -3 9 C-3.26218749 5.85375007 -3.24754367 4.38162983 -1.5 1.6875 C-1.005 1.130625 -0.51 0.57375 0 0 Z " fill="#A0AAAB" transform="translate(118,0)"/>
<path d="M0 0 C0.33 0 0.66 0 1 0 C1.3125 2.25 1.3125 2.25 1 5 C-1.5 7.3125 -1.5 7.3125 -4 9 C-3.35499066 5.51694958 -1.95865224 2.93797836 0 0 Z " fill="#508257" transform="translate(230,204)"/>
<path d="M0 0 C0.99 0 1.98 0 3 0 C2.40138258 2.35171131 1.73075648 4.6859378 1 7 C0.01 7.495 0.01 7.495 -1 8 C-0.67 5.36 -0.34 2.72 0 0 Z " fill="#425A5B" transform="translate(1,189)"/>
<path d="M0 0 C3.67230705 3.07999946 4.56802365 5.2482602 5 10 C2.08772731 6.71195019 0.50298788 4.40114397 0 0 Z " fill="#949E9F" transform="translate(203,94)"/>
<path d="M0 0 C0.99 0 1.98 0 3 0 C3 1.65 3 3.3 3 5 C2.01 5.33 1.02 5.66 0 6 C-0.38218767 4.34385343 -0.71395102 2.67542976 -1 1 C-0.67 0.67 -0.34 0.34 0 0 Z " fill="#879194" transform="translate(95,38)"/>
<path d="M0 0 C0.78375 0.04125 1.5675 0.0825 2.375 0.125 C2.375 1.115 2.375 2.105 2.375 3.125 C0.065 2.795 -2.245 2.465 -4.625 2.125 C-2.625 0.125 -2.625 0.125 0 0 Z " fill="#4DA048" transform="translate(140.625,200.875)"/>
<path d="M0 0 C0.66 0 1.32 0 2 0 C2 0.66 2 1.32 2 2 C1.34 2 0.68 2 0 2 C0 1.34 0 0.68 0 0 Z " fill="#FFFFFF" transform="translate(244,136)"/>
</svg>
